name C:\Users\u0101727\Documents\MyRepositories\upper-imu-dc\Results\main_tracking\Case_31\FLX01_linearAccelerations_groundFrame.mot
datacolumns 4
datarows 70
range 3.51000000 4.20000000
endheader 
time	radius_imu_x	radius_imu_y	radius_imu_z	
          3.51000000	         -0.20113436	          9.79519148	          0.61829051	
          3.52000000	         -0.27606998	          9.79140487	          0.60991690	
          3.53000000	         -0.33630412	          9.78845235	          0.57968631	
          3.54000000	         -0.37708135	          9.78444067	          0.52790520	
          3.55000000	         -0.39831447	          9.77770533	          0.45713430	
          3.56000000	         -0.40565610	          9.76841558	          0.37287323	
          3.57000000	         -0.40751875	          9.75900217	          0.28253212	
          3.58000000	         -0.41185241	          9.75314112	          0.19356380	
          3.59000000	         -0.42306239	          9.75419612	          0.11216900	
          3.60000000	         -0.44147164	          9.76395013	          0.04296935	
          3.61000000	         -0.46333810	          9.78203684	         -0.01111219	
          3.62000000	         -0.48056925	          9.80607433	         -0.04951667	
          3.63000000	         -0.48135797	          9.83232179	         -0.07455962	
          3.64000000	         -0.45304942	          9.85658676	         -0.09067706	
          3.65000000	         -0.38597932	          9.87496096	         -0.10277701	
          3.66000000	         -0.27605846	          9.88416061	         -0.11478949	
          3.67000000	         -0.12581085	          9.88168821	         -0.12857148	
          3.68000000	          0.05512413	          9.86615500	         -0.14274972	
          3.69000000	          0.24966964	          9.83781691	         -0.15161882	
          3.70000000	          0.43514465	          9.79894052	         -0.14564066	
          3.71000000	          0.59028682	          9.75355414	         -0.11555761	
          3.72000000	          0.70466448	          9.70675294	         -0.05816535	
          3.73000000	          0.78245349	          9.66407807	          0.02127391	
          3.74000000	          0.83922202	          9.63086913	          0.11107552	
          3.75000000	          0.89555930	          9.61122218	          0.19710294	
          3.76000000	          0.97013404	          9.60656242	          0.26653062	
          3.77000000	          1.07403114	          9.61492960	          0.31056291	
          3.78000000	          1.20760107	          9.63142115	          0.32578322	
          3.79000000	          1.36000782	          9.64951559	          0.31422466	
          3.80000000	          1.51190460	          9.66307254	          0.28258778	
          3.81000000	          1.64049008	          9.66786105	          0.24023529	
          3.82000000	          1.72590890	          9.66200101	          0.19630131	
          3.83000000	          1.75639729	          9.64551696	          0.15686699	
          3.84000000	          1.73064729	          9.61956561	          0.12333774	
          3.85000000	          1.65733651	          9.58581694	          0.09260615	
          3.86000000	          1.55251954	          9.54616898	          0.05878019	
          3.87000000	          1.43572461	          9.50275268	          0.01569404	
          3.88000000	          1.32579721	          9.45811557	         -0.04075812	
          3.89000000	          1.23764710	          9.41543397	         -0.11116614	
          3.90000000	          1.18056475	          9.37849097	         -0.19224723	
          3.91000000	          1.15788408	          9.35113654	         -0.27749334	
          3.92000000	          1.16749937	          9.33619201	         -0.35856075	
          3.93000000	          1.20291611	          9.33406208	         -0.42699477	
          3.94000000	          1.25486343	          9.34167041	         -0.47576194	
          3.95000000	          1.31361448	          9.35240414	         -0.50030020	
          3.96000000	          1.37169050	          9.35734559	         -0.49898983	
          3.97000000	          1.42595526	          9.34744301	         -0.47304187	
          3.98000000	          1.47802518	          9.31573392	         -0.42590044	
          3.99000000	          1.53284938	          9.25875165	         -0.36239341	
          4.00000000	          1.59614925	          9.17680869	         -0.28797713	
          4.01000000	          1.67174813	          9.07347914	         -0.20825063	
          4.02000000	          1.75971930	          8.95480506	         -0.12869046	
          4.03000000	          1.85589002	          8.82850375	         -0.05443806	
          4.04000000	          1.95247577	          8.70319107	          0.01007240	
          4.05000000	          2.03887310	          8.58763794	          0.06174802	
          4.06000000	          2.10194674	          8.49014299	          0.09954356	
          4.07000000	          2.12631720	          8.41806775	          0.12488082	
          4.08000000	          2.09571857	          8.37753403	          0.14156122	
          4.09000000	          1.99591397	          8.37309765	          0.15514465	
          4.10000000	          1.81807622	          8.40723531	          0.17185658	
          4.11000000	          1.56199680	          8.47912350	          0.19739196	
          4.12000000	          1.23690761	          8.58383770	          0.23594151	
          4.13000000	          0.86041545	          8.71248456	          0.28951845	
          4.14000000	          0.45766703	          8.85270515	          0.35752163	
          4.15000000	          0.05921731	          8.99033136	          0.43644663	
          4.16000000	         -0.30160717	          9.11109311	          0.51984034	
          4.17000000	         -0.59262316	          9.20220387	          0.59851672	
          4.18000000	         -0.78776770	          9.25382981	          0.66130138	
          4.19000000	         -0.87200114	          9.26045685	          0.69659912	
          4.20000000	         -0.84458933	          9.22206644	          0.69494958	
